# xmcd
#
# Track frame offsets: 
#        150
#        16249
#        33309
#        51887
#        70313
#        92292
#        110083
#        125646
#        141072
#        158113
#        178737
#
# Disc length: 2608 seconds
#
# Revision: 1
# Processed by: cddbd v1.5.2PL0 Copyright (c) Steve Scherf et al.
# Submitted via: ExactAudioCopyFreeDBPlugin 1.0
#
DISCID=910a2e0b
DTITLE=Keith Anderson - C'MON!
DYEAR=2008
DGENRE=Country
TTITLE0=C'mon!
TTITLE1=Break My Heart
TTITLE2=Somebody Needs A Hug
TTITLE3=She Could've Been Mine
TTITLE4=Sunday Morning In America
TTITLE5=I Still Miss You
TTITLE6=Crazy Over You (Featuring Foster and Lloyd)
TTITLE7=I Ain't Hurtin' Nobody But Me
TTITLE8=Adaliene
TTITLE9=Lost In This Moment
TTITLE10=Closest I've Ever Been
EXTD=YEAR: 2008
EXTT0=
EXTT1=
EXTT2=
EXTT3=
EXTT4=
EXTT5=
EXTT6=
EXTT7=
EXTT8=
EXTT9=
EXTT10=
PLAYORDER=
